<?xml version="1.0" encoding="UTF-8"?>
<svg id="Layer_1" data-name="Layer 1" xmlns="http://www.w3.org/2000/svg" viewBox="0 0 1802 962">
  <defs>
    <style>
      .cls-1 {
        fill: #fff;
      }

      .cls-2 {
        fill: #40c0ff;
      }

      .cls-3 {
        fill: #0080ff;
      }
    </style>
  </defs>
  <g>
    <g>
      <rect class="cls-3" x="765.24" y="274.59" width="271.53" height="271.53" transform="translate(-26.27 757.29) rotate(-45)"/>
      <rect class="cls-1" x="793.52" y="302.87" width="214.96" height="214.96" transform="translate(-26.27 757.29) rotate(-45)"/>
    </g>
    <g>
      <rect class="cls-2" x="1011.06" y="520.41" width="67.88" height="67.88" transform="translate(-85.91 901.29) rotate(-45)"/>
      <rect class="cls-1" x="1028.03" y="537.38" width="33.94" height="33.94" transform="translate(-85.91 901.29) rotate(-45)"/>
    </g>
  </g>
  <g>
    <path d="M709,740.47v-40.23h13.52c3.98,0,7.38.79,10.2,2.38,2.83,1.59,4.99,3.88,6.51,6.86,1.51,2.98,2.27,6.59,2.27,10.8v.06c0,4.22-.75,7.83-2.26,10.85s-3.67,5.31-6.5,6.9c-2.83,1.59-6.24,2.38-10.23,2.38h-13.52ZM714.02,735.95h8.17c3.05,0,5.63-.6,7.74-1.81,2.11-1.21,3.71-2.97,4.81-5.28,1.1-2.31,1.64-5.13,1.64-8.46v-.06c0-3.35-.55-6.18-1.64-8.5-1.1-2.32-2.7-4.08-4.81-5.28-2.11-1.2-4.69-1.8-7.74-1.8h-8.17v31.2Z"/>
    <path d="M749.73,706.56c-.84,0-1.55-.3-2.15-.89-.6-.59-.89-1.31-.89-2.15s.3-1.58.89-2.16c.59-.59,1.31-.88,2.15-.88s1.58.29,2.16.88.88,1.31.88,2.16-.29,1.55-.88,2.15c-.59.6-1.31.89-2.16.89ZM747.31,740.47v-29h4.85v29h-4.85Z"/>
    <path d="M767.24,741.03c-1.91,0-3.6-.36-5.05-1.09s-2.58-1.75-3.39-3.07c-.81-1.32-1.21-2.85-1.21-4.6v-.06c0-1.65.41-3.09,1.24-4.29.83-1.21,2.03-2.17,3.6-2.87,1.57-.71,3.46-1.12,5.67-1.25l10.73-.61v3.76l-10.18.61c-1.93.11-3.43.58-4.5,1.39-1.07.82-1.6,1.91-1.6,3.26v.06c0,1.39.52,2.5,1.58,3.32,1.05.82,2.45,1.23,4.2,1.23,1.52,0,2.89-.32,4.11-.96,1.22-.64,2.18-1.52,2.9-2.63.72-1.12,1.07-2.37,1.07-3.76v-8.56c0-1.77-.55-3.15-1.66-4.17-1.11-1.01-2.67-1.52-4.7-1.52-1.86,0-3.36.4-4.5,1.21s-1.85,1.86-2.13,3.16l-.06.25h-4.68l.03-.31c.15-1.6.69-3.05,1.63-4.35.94-1.3,2.23-2.34,3.89-3.11,1.65-.77,3.61-1.16,5.88-1.16s4.26.39,5.92,1.17c1.66.78,2.95,1.88,3.86,3.3.91,1.42,1.37,3.1,1.37,5.03v20.05h-4.85v-4.71h-.11c-.56,1.06-1.3,1.98-2.23,2.77-.93.79-1.98,1.4-3.14,1.84-1.16.44-2.39.66-3.69.66Z"/>
    <path d="M787.43,740.47v-29h4.85v4.24h.11c.65-1.43,1.67-2.59,3.07-3.47,1.39-.88,3.02-1.32,4.88-1.32,1.32,0,2.51.22,3.58.66,1.07.44,1.99,1.07,2.77,1.9.78.83,1.38,1.84,1.78,3.03h.11c.54-1.17,1.26-2.17,2.16-3,.9-.83,1.94-1.46,3.12-1.91,1.18-.45,2.45-.67,3.81-.67,1.91,0,3.58.4,4.99,1.18,1.41.79,2.51,1.9,3.29,3.32s1.17,3.1,1.17,5.03v20.02h-4.85v-18.9c0-1.34-.24-2.48-.71-3.43s-1.16-1.67-2.05-2.17-1.98-.75-3.26-.75-2.42.29-3.4.88c-.99.59-1.76,1.39-2.31,2.43s-.84,2.21-.84,3.53v18.43h-4.85v-19.43c0-1.17-.25-2.19-.74-3.07-.49-.87-1.18-1.55-2.06-2.04-.88-.48-1.93-.72-3.14-.72-1.28,0-2.42.31-3.42.93-.99.62-1.78,1.46-2.36,2.52-.58,1.06-.86,2.27-.86,3.62v18.18h-4.85Z"/>
    <path d="M845.31,741.03c-2.68,0-5.02-.61-7.04-1.84-2.02-1.23-3.59-2.97-4.71-5.23-1.12-2.26-1.69-4.92-1.69-7.99v-.06c0-3.09.56-5.75,1.69-7.99,1.12-2.24,2.69-3.97,4.71-5.19,2.02-1.22,4.35-1.83,7.01-1.83s5.02.61,7.04,1.83c2.02,1.22,3.59,2.95,4.71,5.19,1.12,2.24,1.69,4.9,1.69,7.99v.06c0,3.09-.56,5.75-1.69,8s-2.69,3.99-4.7,5.21-4.35,1.84-7.03,1.84ZM845.34,736.73c1.71,0,3.19-.42,4.45-1.27,1.25-.85,2.23-2.07,2.93-3.68.7-1.61,1.05-3.55,1.05-5.81v-.06c0-2.27-.35-4.2-1.05-5.8-.7-1.6-1.68-2.82-2.96-3.65-1.27-.84-2.76-1.25-4.47-1.25s-3.15.42-4.42,1.27c-1.27.85-2.26,2.06-2.97,3.65-.71,1.59-1.06,3.52-1.06,5.79v.06c0,2.27.35,4.21,1.06,5.81.71,1.61,1.7,2.84,2.97,3.68,1.27.85,2.76,1.27,4.47,1.27Z"/>
    <path d="M863.6,740.47v-29h4.85v4.13h.11c.78-1.36,1.91-2.48,3.4-3.36,1.49-.88,3.33-1.32,5.52-1.32,3.18,0,5.65.96,7.4,2.89s2.63,4.54,2.63,7.85v18.82h-4.85v-17.96c0-2.36-.55-4.17-1.66-5.42-1.11-1.25-2.77-1.88-5-1.88-1.52,0-2.85.34-3.99,1.02-1.13.68-2.01,1.63-2.63,2.86-.62,1.23-.93,2.67-.93,4.32v17.06h-4.85Z"/>
    <path d="M904.58,741.03c-2.47,0-4.63-.62-6.48-1.85-1.85-1.24-3.29-2.98-4.31-5.24-1.02-2.26-1.53-4.91-1.53-7.96v-.03c0-3.05.52-5.7,1.55-7.95,1.03-2.25,2.47-3.99,4.31-5.23,1.84-1.24,3.97-1.85,6.38-1.85,1.37,0,2.65.22,3.83.66,1.18.44,2.23,1.06,3.16,1.87.93.81,1.69,1.77,2.29,2.89h.11v-16.09h4.85v40.23h-4.85v-4.91h-.11c-.6,1.13-1.35,2.1-2.26,2.91-.91.81-1.95,1.44-3.11,1.88-1.16.45-2.44.67-3.83.67ZM905.53,736.73c1.64,0,3.09-.45,4.35-1.34,1.26-.89,2.25-2.15,2.97-3.76.72-1.62,1.07-3.5,1.07-5.66v-.03c0-2.16-.36-4.04-1.09-5.65-.72-1.61-1.71-2.86-2.97-3.75s-2.7-1.34-4.34-1.34-3.19.44-4.43,1.31c-1.25.87-2.2,2.11-2.87,3.71-.67,1.6-1,3.5-1,5.72v.03c0,2.21.33,4.13,1,5.74s1.63,2.86,2.87,3.72c1.25.86,2.72,1.3,4.43,1.3Z"/>
    <path d="M942.92,741.14c-2.81,0-5.34-.49-7.61-1.46-2.27-.98-4.21-2.38-5.81-4.22-1.61-1.84-2.84-4.05-3.71-6.64-.86-2.58-1.3-5.47-1.3-8.67v-.03c0-4.2.76-7.83,2.27-10.9,1.51-3.07,3.65-5.44,6.41-7.12,2.76-1.68,6.01-2.52,9.74-2.52,3.09,0,5.76.54,8.02,1.63s4.11,2.57,5.56,4.43,2.48,3.99,3.09,6.37l.14.53h-5.27l-.11-.31c-.93-2.55-2.36-4.52-4.29-5.92-1.93-1.4-4.31-2.1-7.14-2.1s-5.12.64-7.11,1.91c-1.99,1.27-3.52,3.1-4.59,5.48-1.07,2.38-1.6,5.22-1.6,8.53v.03c0,2.53.31,4.8.92,6.82.61,2.02,1.5,3.74,2.66,5.16,1.16,1.42,2.56,2.51,4.2,3.26,1.64.75,3.48,1.13,5.52,1.13,2.38,0,4.47-.48,6.29-1.44,1.81-.96,3.22-2.29,4.24-4,1.01-1.71,1.52-3.69,1.52-5.94v-.72h-11.35v-4.41h16.37v3.82c0,2.71-.39,5.14-1.16,7.28-.77,2.14-1.89,3.95-3.36,5.45-1.47,1.5-3.26,2.63-5.37,3.42-2.11.78-4.5,1.17-7.18,1.17Z"/>
    <path d="M977.66,741.03c-2.68,0-5.02-.61-7.04-1.84-2.02-1.23-3.59-2.97-4.71-5.23-1.12-2.26-1.69-4.92-1.69-7.99v-.06c0-3.09.56-5.75,1.69-7.99,1.12-2.24,2.69-3.97,4.71-5.19,2.02-1.22,4.35-1.83,7.01-1.83s5.02.61,7.04,1.83c2.02,1.22,3.59,2.95,4.71,5.19,1.12,2.24,1.69,4.9,1.69,7.99v.06c0,3.09-.56,5.75-1.69,8-1.12,2.25-2.69,3.99-4.7,5.21s-4.35,1.84-7.03,1.84ZM977.69,736.73c1.71,0,3.19-.42,4.45-1.27,1.25-.85,2.23-2.07,2.93-3.68.7-1.61,1.05-3.55,1.05-5.81v-.06c0-2.27-.35-4.2-1.05-5.8-.7-1.6-1.68-2.82-2.96-3.65-1.27-.84-2.77-1.25-4.47-1.25s-3.15.42-4.42,1.27c-1.27.85-2.26,2.06-2.97,3.65-.71,1.59-1.06,3.52-1.06,5.79v.06c0,2.27.35,4.21,1.06,5.81.71,1.61,1.7,2.84,2.97,3.68,1.27.85,2.76,1.27,4.47,1.27Z"/>
    <path d="M1005.37,741.03c-2.66,0-4.65-.63-5.97-1.9-1.32-1.26-1.98-3.28-1.98-6.05v-17.59h-4.24v-4.01h4.24v-7.83h5.02v7.83h5.52v4.01h-5.52v17.56c0,1.54.33,2.59,1,3.14.67.55,1.65.82,2.96.82.3,0,.58-.01.85-.04.27-.03.51-.05.71-.07v3.93c-.3.04-.68.08-1.16.13-.47.05-.95.07-1.44.07Z"/>
    <path d="M1030.71,741.14c-3.72,0-6.96-.85-9.72-2.57-2.76-1.71-4.89-4.12-6.4-7.24-1.51-3.11-2.26-6.78-2.26-11v-.03c0-4.22.75-7.88,2.26-10.98,1.51-3.1,3.63-5.51,6.38-7.21,2.75-1.7,5.99-2.55,9.73-2.55,2.79,0,5.33.53,7.61,1.59s4.2,2.54,5.73,4.43,2.55,4.12,3.05,6.66l.06.28h-5.07l-.2-.61c-.52-1.64-1.3-3.03-2.33-4.17s-2.29-2.02-3.78-2.63c-1.49-.61-3.18-.92-5.07-.92-2.68,0-5,.66-6.98,1.99-1.98,1.33-3.51,3.2-4.6,5.6-1.09,2.41-1.63,5.25-1.63,8.52v.03c0,3.25.54,6.09,1.63,8.52s2.63,4.31,4.61,5.65c1.99,1.34,4.31,2.01,6.97,2.01,1.88,0,3.55-.31,5.03-.92s2.75-1.52,3.81-2.72,1.88-2.68,2.45-4.45l.08-.25h5.07l-.06.28c-.5,2.57-1.52,4.8-3.04,6.71-1.52,1.91-3.43,3.38-5.72,4.42s-4.83,1.56-7.64,1.56Z"/>
    <path d="M1060.8,741.03c-1.92,0-3.6-.36-5.05-1.09s-2.58-1.75-3.39-3.07c-.81-1.32-1.21-2.85-1.21-4.6v-.06c0-1.65.41-3.09,1.24-4.29.83-1.21,2.03-2.17,3.6-2.87,1.57-.71,3.46-1.12,5.67-1.25l10.73-.61v3.76l-10.18.61c-1.93.11-3.43.58-4.5,1.39-1.07.82-1.6,1.91-1.6,3.26v.06c0,1.39.52,2.5,1.58,3.32,1.05.82,2.45,1.23,4.2,1.23,1.52,0,2.89-.32,4.11-.96,1.22-.64,2.18-1.52,2.9-2.63.72-1.12,1.07-2.37,1.07-3.76v-8.56c0-1.77-.55-3.15-1.66-4.17-1.11-1.01-2.67-1.52-4.7-1.52-1.86,0-3.36.4-4.5,1.21s-1.85,1.86-2.13,3.16l-.06.25h-4.68l.03-.31c.15-1.6.69-3.05,1.63-4.35.94-1.3,2.23-2.34,3.89-3.11,1.65-.77,3.61-1.16,5.88-1.16s4.26.39,5.92,1.17c1.66.78,2.95,1.88,3.86,3.3.91,1.42,1.37,3.1,1.37,5.03v20.05h-4.85v-4.71h-.11c-.56,1.06-1.3,1.98-2.23,2.77-.93.79-1.98,1.4-3.14,1.84-1.16.44-2.39.66-3.69.66Z"/>
    <path d="M1090.41,741.03c-2.66,0-4.65-.63-5.97-1.9-1.32-1.26-1.98-3.28-1.98-6.05v-17.59h-4.24v-4.01h4.24v-7.83h5.02v7.83h5.52v4.01h-5.52v17.56c0,1.54.33,2.59,1,3.14.67.55,1.65.82,2.96.82.3,0,.58-.01.85-.04.27-.03.51-.05.71-.07v3.93c-.3.04-.68.08-1.16.13-.47.05-.95.07-1.44.07Z"/>
  </g>
</svg>